<svg xmlns="http://www.w3.org/2000/svg" xmlns:xlink="http://www.w3.org/1999/xlink" viewBox="0 0 40.46 25.5"><defs><style>.cls-1{fill:none;stroke:#fff;stroke-miterlimit:10;stroke-width:0.25px;}.cls-2{clip-path:url(#clip-path);}.cls-3{fill:#053f70;}.cls-4{fill:#ff9800;}.cls-5{fill:#fff;}</style><clipPath id="clip-path" transform="translate(0.21)"><path class="cls-1" d="M36.16,13.32a6.24,6.24,0,0,0-8.29-7.64A8.79,8.79,0,0,0,11,8.09a3.57,3.57,0,0,0-1.46-.31A3.69,3.69,0,0,0,5.8,11.47a3.76,3.76,0,0,0,.28,1.43,6.24,6.24,0,0,0,.29,12.47H33.88a6.24,6.24,0,0,0,2.28-12Z"/></clipPath></defs><title>Recurso 5</title><g id="Capa_2" data-name="Capa 2"><g id="Capa_1-2" data-name="Capa 1"><g class="cls-2"><path class="cls-3" d="M36.19,13.32a6.24,6.24,0,0,0-8.28-7.64A8.8,8.8,0,0,0,11,8.09a3.57,3.57,0,0,0-1.46-.31,3.69,3.69,0,0,0-3.69,3.69,3.58,3.58,0,0,0,.29,1.43A6.24,6.24,0,0,0,6.4,25.37H33.92a6.24,6.24,0,0,0,2.27-12Z" transform="translate(0.21)"/><path class="cls-4" d="M36.19,13.32a6.24,6.24,0,0,0-1-5.58c-2.47,2-.16,8.26-10.08,6S19.76,23,10.11,20c-6.45-2-7.85.06-9.35,1.8A6.23,6.23,0,0,0,6.4,25.37H33.92a6.24,6.24,0,0,0,2.27-12Z" transform="translate(0.21)"/><path class="cls-5" d="M1,22.87s2.44-3,9.15-1.46c11.18,2.61,6-9.15,15.89-6.56a7.26,7.26,0,0,0,8.7-5.08c.78-2.94,1.7-3.4,1.7-3.4s-1.08.53-2.55,3.12c-1.18,2.07-3.75,4.8-8.7,3.65-10-2.29-5.21,8.11-15,5.72C2.83,17.09-.48,20.27-.19,21.4-.23,21.57,1,22.87,1,22.87Z" transform="translate(0.21)"/></g><path class="cls-1" d="M36.16,13.32a6.24,6.24,0,0,0-8.29-7.64A8.79,8.79,0,0,0,11,8.09a3.57,3.57,0,0,0-1.46-.31A3.69,3.69,0,0,0,5.8,11.47a3.76,3.76,0,0,0,.28,1.43,6.24,6.24,0,0,0,.29,12.47H33.88a6.24,6.24,0,0,0,2.28-12Z" transform="translate(0.21)"/></g></g></svg>