<svg xmlns="http://www.w3.org/2000/svg" xmlns:xlink="http://www.w3.org/1999/xlink" viewBox="0 0 76.11 74"><defs><style>.cls-1{fill:#fff;}.cls-2{fill:none;}.cls-3{clip-path:url(#clip-path);}.cls-4{fill:#053f70;}.cls-5{clip-path:url(#clip-path-2);}.cls-6{fill:#ff9800;}</style><clipPath id="clip-path"><rect class="cls-1" width="76.11" height="74" rx="35"/></clipPath><clipPath id="clip-path-2"><path class="cls-2" d="M62.06,25.75a9.34,9.34,0,0,0-12.4-11.44,13.16,13.16,0,0,0-25.34,3.61A5.53,5.53,0,0,0,16.61,23,5.62,5.62,0,0,0,17,25.12a9.34,9.34,0,0,0,.42,18.67H58.65a9.34,9.34,0,0,0,3.41-18Z"/></clipPath></defs><title>Recurso 1</title><g id="Capa_2" data-name="Capa 2"><g id="Capa_1-2" data-name="Capa 1"><rect class="cls-1" width="76.11" height="74" rx="35"/><g class="cls-3"><path class="cls-4" d="M12,58.86a1.39,1.39,0,0,1-1.52-1.52V48.93A1.36,1.36,0,0,1,12,47.43a1.46,1.46,0,0,1,1.08.39,1.5,1.5,0,0,1,.39,1.11v7.45h4a1.3,1.3,0,0,1,.94.32,1.23,1.23,0,0,1,.32.91,1.25,1.25,0,0,1-.32.92,1.27,1.27,0,0,1-.94.33Z"/><path class="cls-4" d="M24.52,59.05a6.85,6.85,0,0,1-2.21-.32,4.22,4.22,0,0,1-1.61-.95,3.93,3.93,0,0,1-1-1.57A6.74,6.74,0,0,1,19.39,54V48.81a1.54,1.54,0,0,1,.39-1.14,1.51,1.51,0,0,1,1.12-.39,1.46,1.46,0,0,1,1.08.39,1.54,1.54,0,0,1,.39,1.14V54a2.79,2.79,0,0,0,.55,1.89,2,2,0,0,0,1.6.63,2,2,0,0,0,1.6-.63A2.79,2.79,0,0,0,26.68,54V48.81a1.54,1.54,0,0,1,.38-1.14,1.68,1.68,0,0,1,2.15,0,1.58,1.58,0,0,1,.38,1.14V54A6.19,6.19,0,0,1,29,56.8a3.71,3.71,0,0,1-1.7,1.69A6.18,6.18,0,0,1,24.52,59.05Z"/><path class="cls-4" d="M33,59a1.34,1.34,0,0,1-1-.37,1.45,1.45,0,0,1-.36-1V48.76a1.54,1.54,0,0,1,.36-1.09,1.21,1.21,0,0,1,.95-.39,1.36,1.36,0,0,1,.8.21,3,3,0,0,1,.64.65l5.14,6.41H39V48.69a1.44,1.44,0,0,1,.35-1,1.33,1.33,0,0,1,1-.38,1.34,1.34,0,0,1,1,.38,1.4,1.4,0,0,1,.36,1v9a1.43,1.43,0,0,1-.33,1,1.13,1.13,0,0,1-.88.38,1.65,1.65,0,0,1-.87-.2,3.43,3.43,0,0,1-.69-.66L33.9,51.74h.45V57.6a1.5,1.5,0,0,1-.35,1A1.32,1.32,0,0,1,33,59Z"/><path class="cls-4" d="M49.63,59.05a6.75,6.75,0,0,1-3.25-.73,5.15,5.15,0,0,1-2.1-2.06,6.31,6.31,0,0,1-.73-3.12A6.64,6.64,0,0,1,44,50.72a5.11,5.11,0,0,1,1.2-1.84,5.69,5.69,0,0,1,1.92-1.2,7,7,0,0,1,2.55-.43,6.93,6.93,0,0,1,1.53.18,5.91,5.91,0,0,1,1.42.5,1.38,1.38,0,0,1,.64.62,1.42,1.42,0,0,1,.11.78,1.5,1.5,0,0,1-.28.7,1.13,1.13,0,0,1-.58.41,1,1,0,0,1-.8-.11,3.9,3.9,0,0,0-1-.35,4.81,4.81,0,0,0-1-.11,3.39,3.39,0,0,0-1.66.38,2.53,2.53,0,0,0-1,1.11,4.25,4.25,0,0,0-.34,1.78,4.31,4.31,0,0,0,.34,1.8,2.43,2.43,0,0,0,1,1.11,3.39,3.39,0,0,0,1.66.38,4.2,4.2,0,0,0,.93-.1,3.8,3.8,0,0,0,1-.32,1.35,1.35,0,0,1,.86-.12,1,1,0,0,1,.62.39,1.4,1.4,0,0,1,.3.68,1.23,1.23,0,0,1-.1.75,1.31,1.31,0,0,1-.59.6,5.18,5.18,0,0,1-1.4.54A6.77,6.77,0,0,1,49.63,59.05Z"/><path class="cls-4" d="M56.5,59a1.48,1.48,0,0,1-1.12-.4A1.58,1.58,0,0,1,55,57.48V48.82a1.57,1.57,0,0,1,.39-1.13,1.48,1.48,0,0,1,1.12-.41,1.43,1.43,0,0,1,1.08.41A1.57,1.57,0,0,1,58,48.82v3h4.71v-3a1.57,1.57,0,0,1,.39-1.13,1.67,1.67,0,0,1,2.19,0,1.56,1.56,0,0,1,.38,1.13v8.66a1.57,1.57,0,0,1-.38,1.14,1.7,1.7,0,0,1-2.19,0,1.58,1.58,0,0,1-.39-1.14V54.29H58v3.19a1.62,1.62,0,0,1-.38,1.14A1.42,1.42,0,0,1,56.5,59Z"/><g class="cls-5"><path class="cls-4" d="M62.11,25.75a9.34,9.34,0,0,0-12.4-11.44,13.16,13.16,0,0,0-25.34,3.61A5.53,5.53,0,0,0,16.66,23a5.62,5.62,0,0,0,.43,2.13,9.34,9.34,0,0,0,.42,18.67H58.7a9.34,9.34,0,0,0,3.41-18Z"/><path class="cls-6" d="M62.11,25.75a9.41,9.41,0,0,0-1.44-8.35c-3.7,3.07-.24,12.36-15.1,8.94s-8.06,13.93-22.5,9.4c-9.66-3-11.75.1-14,2.7a9.35,9.35,0,0,0,8.45,5.35H58.7a9.34,9.34,0,0,0,3.41-18Z"/><path class="cls-1" d="M9.37,40.05s3.65-4.53,13.7-2.18c16.73,3.9,9-13.71,23.78-9.83,6.65,1.74,11.85-3.2,13-7.6s2.55-5.1,2.55-5.1S60.8,16.13,58.6,20c-1.77,3.11-5.61,7.19-13,5.48-14.9-3.43-7.79,12.13-22.5,8.55C12.17,31.4,7.22,36.15,7.64,37.85A13.48,13.48,0,0,0,9.37,40.05Z"/></g></g></g></g></svg>